<svg aria-hidden="true" style="position: absolute; width: 0; height: 0; overflow: hidden;" version="1.1" xmlns="http://www.w3.org/2000/svg" xmlns:xlink="http://www.w3.org/1999/xlink">
<defs>

<symbol id="icon-logo-1-new" viewBox="0 0 32 32">
<path d="M11.106 0.878c-5.396 2.008-8.596 5.396-10.227 10.792-1.129 3.765-1.129 4.894 0.125 8.973 1.067 3.576 4.078 7.404 7.529 9.412 2.635 1.569 2.761 0.565 0.251-1.82-1.569-1.443-1.882-2.259-1.882-4.643 0-1.569-0.251-2.886-0.627-2.886-1.192 0-1.443-3.075-0.376-4.706 0.565-0.816 1.004-2.196 1.004-2.949 0-2.071 2.196-5.333 4.518-6.776 5.459-3.325 13.302 0.502 14.118 6.965 0.188 1.318 0.753 2.761 1.192 3.137 1.129 0.941 1.129 2.698 0 3.639-0.439 0.376-1.004 2.133-1.129 3.827-0.251 2.698-0.69 3.451-2.761 5.333-2.698 2.384-3.388 2.635-3.388 1.255 0-0.753-0.816-0.941-3.514-0.941-2.824 0-3.451 0.188-3.2 0.878 0.251 0.565-0.063 1.067-0.69 1.192-0.565 0.188 1.067 0.314 3.639 0.314 3.576 0 5.208-0.314 6.902-1.318 5.898-3.451 8.784-8.22 8.784-14.557 0-2.259-0.376-5.020-0.878-6.212-1.255-2.949-4.58-6.526-7.467-8.031-3.263-1.631-8.784-2.071-11.922-0.878z"></path>
<path d="M12.737 7.906c-2.51 1.255-2.573 1.694-0.502 2.635s5.459 0.941 7.529 0c2.133-0.941 2.008-1.631-0.627-2.761-2.761-1.129-3.89-1.067-6.4 0.125z"></path>
<path d="M9.161 11.733c-0.188 0.251-0.376 1.067-0.376 1.882 0 1.443 0.063 1.443 7.592 1.443 6.651 0 7.529-0.126 7.216-1.004-0.188-0.565-0.376-1.38-0.376-1.882 0-0.753-0.314-0.753-2.008 0.126-2.573 1.318-7.216 1.38-9.663 0.063-1.067-0.565-2.133-0.816-2.384-0.627z"></path>
<path d="M6.902 18.196c0 0.314 2.447 0.69 5.522 0.753l5.459 0.188 0.188 2.008c0.125 1.129 0.439 2.071 0.753 2.071s0.627-0.941 0.753-2.071c0.188-1.882 0.376-2.008 2.886-2.196 1.443-0.125 2.635-0.439 2.635-0.816 0-0.314-3.827-0.565-9.098-0.565-5.396 0-9.098 0.251-9.098 0.627z"></path>
<path d="M8.784 23.404c0 3.325 1.506 4.204 7.153 4.204 6.212 0 7.278-0.565 7.278-3.765 0-1.38-0.251-2.51-0.627-2.51-0.314 0-0.627 0.502-0.627 1.129 0 0.69-0.565 1.694-1.255 2.322-2.071 1.882-4.957 0-4.455-3.012 0-0.251-1.631-0.439-3.702-0.439h-3.765v2.071z"></path>
</symbol>
<symbol id="icon-logo-1-new2" viewBox="0 0 32 32">
<path d="M13.214 0.238c-0.113 0.176-0.414 0.276-1.255 0.389-0.602 0.088-1.192 0.226-1.293 0.314s-0.439 0.238-0.753 0.314c-0.314 0.088-0.703 0.251-0.878 0.376-0.176 0.113-0.452 0.264-0.615 0.314-0.653 0.201-2.748 1.782-3.815 2.874-0.452 0.464-0.64 0.703-1.368 1.807-0.113 0.176-0.301 0.376-0.402 0.427-0.113 0.063-0.201 0.188-0.201 0.276s-0.126 0.351-0.289 0.59c-0.151 0.238-0.364 0.627-0.452 0.866-0.1 0.238-0.251 0.502-0.339 0.565-0.088 0.075-0.201 0.364-0.238 0.627-0.050 0.276-0.188 0.665-0.314 0.878-0.125 0.201-0.289 0.904-0.364 1.544-0.138 1.142-0.339 1.782-0.54 1.782-0.050 0-0.1 0.791-0.1 1.757s0.050 1.757 0.1 1.757c0.201 0 0.389 0.615 0.527 1.719 0.088 0.602 0.251 1.305 0.376 1.556 0.138 0.238 0.276 0.678 0.326 0.954 0.038 0.289 0.151 0.552 0.238 0.59 0.088 0.025 0.238 0.276 0.314 0.54 0.088 0.264 0.226 0.565 0.314 0.665s0.264 0.389 0.376 0.627c0.126 0.238 0.452 0.728 0.74 1.092s0.715 0.916 0.954 1.242c0.238 0.314 0.891 0.941 1.443 1.38 0.552 0.452 1.117 0.916 1.255 1.042s0.439 0.301 0.665 0.402c0.213 0.1 0.402 0.213 0.402 0.251 0 0.050 0.176 0.151 0.389 0.226 0.64 0.226 1.481 0.816 1.493 1.042 0 0.125 0.088 0.226 0.201 0.226 0.213 0 0.552 0.289 0.552 0.477 0 0.226 0.853 0.289 4.354 0.264 2.56 0 3.551-0.050 3.602-0.151 0.038-0.113 0.063-0.1 0.063 0 0.013 0.113 0.301 0.163 1.029 0.163 0.64 0 0.979-0.050 0.929-0.125s0.088-0.125 0.301-0.125c0.301 0 0.389-0.050 0.389-0.251 0-0.138 0.088-0.251 0.188-0.251s0.238-0.113 0.301-0.238c0.075-0.125 0.301-0.301 0.515-0.364 0.201-0.075 0.376-0.188 0.376-0.264 0-0.063 0.213-0.188 0.477-0.264 0.251-0.088 0.527-0.226 0.59-0.314 0.075-0.075 0.326-0.251 0.565-0.376s0.577-0.326 0.753-0.464c0.176-0.125 0.477-0.364 0.69-0.514 0.778-0.59 2.046-1.945 2.635-2.849 0.339-0.514 0.69-1.004 0.778-1.079 0.176-0.151 1.418-2.585 1.418-2.786 0-0.063 0.113-0.364 0.238-0.665 0.615-1.393 0.853-5.923 0.452-8.483-0.201-1.23-0.966-3.388-1.443-4.053-0.138-0.188-0.251-0.402-0.251-0.477 0-0.063-0.125-0.276-0.276-0.477-0.163-0.188-0.402-0.527-0.54-0.753-0.791-1.255-1.594-2.184-2.836-3.263-1.016-0.866-3.338-2.196-4.141-2.359-0.226-0.038-0.502-0.163-0.602-0.251-0.113-0.1-0.678-0.251-1.267-0.326-1.079-0.151-1.506-0.289-1.506-0.502 0-0.075-0.991-0.126-2.547-0.126-2.347 0-2.547 0.013-2.686 0.238zM18.071 5.020c0.376 0.075 0.765 0.213 0.878 0.314s0.289 0.188 0.389 0.188c0.201 0 1.719 0.778 2.447 1.267 0.74 0.489 2.246 2.184 2.711 3.049 0.816 1.506 1.117 2.522 1.192 4.066l0.075 1.405 0.514 0.54c0.816 0.828 1.205 1.594 1.205 2.347 0 0.979-0.464 1.732-1.682 2.736-0.163 0.138-0.201 0.514-0.201 2.359 0 2.171 0 2.209-0.389 3.137-0.314 0.765-0.54 1.067-1.205 1.669-0.439 0.414-0.966 0.778-1.154 0.828-0.402 0.088-1.192 0.866-1.33 1.28-0.050 0.176-0.176 0.289-0.326 0.289-0.125 0-0.238 0.088-0.238 0.188s-0.113 0.188-0.238 0.188c-0.138 0-0.264 0.075-0.301 0.151-0.038 0.125-0.113 0.125-0.314 0.013-0.151-0.088-0.364-0.125-0.477-0.075-0.188 0.075-0.201 0.013-0.125-0.452 0.038-0.301 0.025-0.627-0.050-0.765-0.125-0.238-0.276-0.251-3.213-0.251-1.882 0-3.175 0.050-3.325 0.125-0.301 0.163-0.314 0.653-0.025 1.142 0.201 0.351 0.201 0.364-0.025 0.54-0.163 0.125-0.276 0.138-0.326 0.050-0.050-0.075-0.376-0.138-0.728-0.151s-0.64-0.050-0.64-0.113c0-0.050-0.075-0.088-0.176-0.088-0.213 0-0.326-0.276-0.326-0.828 0-0.527-0.565-1.117-1.18-1.23-0.464-0.088-1.87-1.368-2.020-1.832-0.050-0.176-0.176-0.402-0.264-0.515-0.289-0.314-0.439-1.531-0.427-3.313 0.013-0.904 0.013-1.782 0.013-1.958-0.013-0.226-0.163-0.427-0.577-0.715-0.314-0.226-0.627-0.54-0.69-0.703s-0.176-0.326-0.251-0.351c-0.213-0.063-0.389-1.205-0.301-1.857 0.050-0.314 0.213-0.728 0.376-0.916 0.163-0.201 0.301-0.402 0.301-0.452s0.264-0.364 0.577-0.69c0.54-0.54 0.577-0.627 0.502-1.054-0.1-0.665 0.151-2.648 0.414-3.162 0.125-0.251 0.276-0.627 0.314-0.841 0.050-0.213 0.176-0.464 0.276-0.552s0.276-0.351 0.376-0.602c0.251-0.615 2.573-2.861 3.25-3.15 0.301-0.125 0.565-0.289 0.615-0.351 0.038-0.063 0.339-0.188 0.665-0.276 0.339-0.088 0.69-0.238 0.803-0.339 0.113-0.088 0.452-0.213 0.753-0.276 0.778-0.151 3.087-0.163 3.878-0.013z"></path>
<path d="M14.657 7.153c-0.113 0.075-0.54 0.226-0.954 0.364-0.427 0.125-0.916 0.351-1.104 0.502-0.188 0.138-0.376 0.264-0.439 0.264-0.264 0-1.255 0.841-1.33 1.117-0.088 0.326 0.213 0.64 0.615 0.64 0.113 0 0.314 0.113 0.439 0.238s0.477 0.301 0.778 0.389c0.301 0.075 0.69 0.238 0.853 0.351 0.74 0.477 4.555 0.414 5.496-0.088 0.276-0.151 0.577-0.264 0.665-0.264 0.1 0 0.54-0.201 0.979-0.452 0.627-0.351 0.803-0.514 0.803-0.74 0-0.314-0.125-0.464-0.778-0.916-1.004-0.69-1.33-0.866-1.92-1.029-0.339-0.1-0.765-0.251-0.941-0.339-0.376-0.188-2.836-0.213-3.162-0.038z"></path>
<path d="M9.224 11.896c-0.276 0.414-0.314 0.627-0.339 1.782l-0.038 1.318 7.216 0.038c6.024 0.025 7.266 0 7.467-0.151 0.238-0.163 0.238-0.201 0.025-1.092-0.125-0.514-0.213-1.016-0.213-1.117 0-0.402-0.264-1.104-0.452-1.18s-0.477 0.050-1.242 0.552c-0.427 0.276-1.167 0.627-1.33 0.627-0.050 0-0.289 0.113-0.527 0.251-1.154 0.69-5.722 0.728-7.015 0.063-0.226-0.113-0.678-0.289-1.004-0.389-0.339-0.1-0.602-0.226-0.602-0.289 0-0.050-0.226-0.201-0.502-0.326s-0.565-0.301-0.64-0.402c-0.238-0.276-0.464-0.188-0.803 0.314z"></path>
<path d="M7.467 17.594c-0.552 0.314-0.59 0.853-0.1 1.167 0.301 0.201 0.753 0.226 5.183 0.213 4.593-0.013 4.856 0 5.245 0.226l0.402 0.251v1.682c0 0.929 0.038 1.782 0.075 1.895 0.125 0.314 0.791 0.615 0.991 0.439 0.364-0.301 0.477-1.016 0.389-2.46l-0.088-1.405 0.439-0.339 0.439-0.326 2.121 0.038c1.958 0.038 2.158 0.013 2.397-0.201 0.326-0.301 0.339-0.753 0.013-1.079-0.251-0.251-0.414-0.251-8.747-0.251-6.111 0.013-8.584 0.050-8.759 0.151z"></path>
<path d="M9.073 21.296c-0.126 0.038-0.163 0.577-0.163 2.058 0 1.744 0.025 2.046 0.238 2.347 0.126 0.188 0.326 0.502 0.439 0.69 0.138 0.213 0.527 0.502 0.991 0.728l0.778 0.364h9.726l0.678-0.339c0.514-0.251 0.791-0.489 1.104-0.966 0.414-0.64 0.414-0.653 0.489-2.585 0.075-2.196 0.013-2.384-0.715-2.384-0.653 0-0.803 0.251-0.803 1.33 0 1.029-0.213 1.569-0.828 2.158-1.079 1.004-2.008 1.255-2.987 0.791-0.627-0.314-1.355-1.004-1.682-1.581-0.138-0.251-0.213-0.703-0.213-1.355-0.013-0.803-0.063-1.004-0.264-1.154-0.188-0.151-0.828-0.176-3.438-0.176-1.757 0-3.275 0.038-3.351 0.075z"></path>
</symbol>
<symbol id="icon-logo" viewBox="0 0 32 32">
<path d="M11.106 1.004c-3.451 1.067-7.090 4.392-8.91 8.094-1.631 3.325-1.631 10.353-0.063 13.49 1.443 2.761 4.58 6.086 6.776 7.278 2.259 1.192 2.196 0.565-0.126-1.631-1.569-1.443-1.882-2.259-1.882-4.643 0-1.569-0.251-2.886-0.627-2.886-1.192 0-1.443-3.075-0.376-4.706 0.565-0.816 1.004-2.196 1.004-3.012 0-3.765 4.957-7.969 9.412-7.969 4.518 0 9.412 4.329 9.412 8.282 0 1.004 0.439 2.259 0.941 2.761 0.502 0.565 0.941 1.506 0.941 2.071 0 0.627-0.439 1.506-0.941 1.945-0.565 0.502-0.941 1.882-0.941 3.576 0 2.447-0.314 3.137-2.322 4.957-2.635 2.447-2.008 2.824 1.129 0.69 4.957-3.326 7.969-9.976 7.090-15.686-1.506-9.663-11.169-15.624-20.518-12.612z"></path>
<path d="M12.549 8.282l-2.196 1.318 1.882 0.816c2.259 1.004 5.333 1.067 7.467 0.251s2.071-1.631-0.251-2.824c-2.51-1.318-4.329-1.192-6.902 0.439z"></path>
<path d="M9.161 12.298c-1.004 2.635-0.69 2.761 7.153 2.761s8.157-0.126 7.153-2.761c-0.314-0.878-0.565-0.878-2.322 0.063-2.573 1.318-7.090 1.318-9.663 0-1.757-0.941-2.008-0.941-2.322-0.063z"></path>
<path d="M7.216 18.196c-0.251 0.376 1.631 0.627 5.271 0.627h5.647l0.188 2.322c0.125 1.318 0.502 2.384 0.816 2.384 0.376 0 0.69-1.067 0.816-2.384 0.188-2.259 0.251-2.322 2.698-2.322 1.318 0 2.447-0.314 2.447-0.627 0-0.376-3.325-0.627-8.722-0.627-5.208 0-8.91 0.251-9.161 0.627z"></path>
<path d="M8.784 23.404c0 3.451 1.443 4.204 7.718 4.204 4.831 0 5.459-0.125 6.337-1.38 1.318-1.82 1.318-4.894 0.063-4.894-0.565 0-0.941 0.565-0.941 1.569 0 1.067-0.502 1.82-1.506 2.259-2.008 0.941-4.141-0.251-4.141-2.259 0-1.506-0.188-1.569-3.765-1.569h-3.765v2.071z"></path>
<path d="M12.925 30.369c0.753 1.882 6.526 1.882 6.526 0 0-0.627-0.941-0.878-3.451-0.878-2.698 0-3.325 0.188-3.075 0.878z"></path>
</symbol>
</defs>
</svg>
